<?xml version="1.0" standalone="no"?>
<!DOCTYPE svg PUBLIC "-//W3C//DTD SVG 20010904//EN"
 "http://www.w3.org/TR/2001/REC-SVG-20010904/DTD/svg10.dtd">
<svg version="1.0" xmlns="http://www.w3.org/2000/svg"
 width="640.000000pt" height="640.000000pt" viewBox="0 0 640.000000 640.000000"
 preserveAspectRatio="xMidYMid meet">
<metadata>
Created by potrace 1.16, written by Peter Selinger 2001-2019
</metadata>
<g transform="translate(0.000000,640.000000) scale(0.100000,-0.100000)"
fill="#000000" stroke="none">
<path d="M544 4657 c-69 -106 -103 -171 -144 -281 -54 -144 -74 -261 -67 -401
6 -127 24 -201 72 -303 70 -148 91 -170 816 -872 156 -151 300 -290 319 -309
19 -19 90 -88 157 -153 l121 -120 44 48 c23 26 52 57 62 67 22 23 72 -31 -389
411 -676 647 -711 682 -770 761 -57 76 -140 231 -150 280 -3 17 4 7 18 -25 78
-180 124 -236 464 -565 164 -159 361 -350 438 -424 77 -75 199 -193 272 -263
72 -71 135 -128 141 -128 8 0 54 48 139 146 10 12 113 128 228 259 116 131
211 241 213 244 1 4 -62 63 -140 132 -79 68 -482 420 -896 782 -414 363 -755
657 -756 655 -19 -22 -62 -112 -91 -187 -43 -113 -65 -231 -66 -360 l-1 -96
-10 60 c-8 46 -6 86 7 169 20 135 44 212 101 329 24 51 44 96 44 100 0 14
-104 107 -120 107 -8 0 -33 -28 -56 -63z"/>
<path d="M5725 4667 l-58 -52 17 -35 c13 -27 13 -31 2 -16 -8 10 -17 24 -19
30 -3 9 -70 -43 -147 -114 -9 -8 -43 -37 -75 -65 -32 -27 -140 -121 -239 -208
-100 -87 -203 -177 -230 -200 -27 -23 -65 -56 -85 -73 -112 -98 -224 -195
-276 -239 -55 -47 -205 -177 -536 -465 -79 -69 -159 -137 -176 -150 -18 -13
-35 -32 -39 -42 -4 -13 40 -69 173 -216 98 -109 228 -255 288 -324 61 -70 112
-127 115 -127 5 -1 64 56 450 428 124 119 328 316 454 436 126 121 249 243
273 270 62 68 37 25 -29 -52 -47 -56 -331 -330 -804 -779 -87 -84 -199 -190
-249 -237 l-90 -85 25 -24 c14 -13 42 -43 63 -67 20 -24 39 -42 42 -40 2 2 41
40 87 83 46 44 153 148 238 230 86 83 248 239 360 346 232 222 481 462 555
534 116 115 200 256 236 394 39 152 22 400 -38 552 -68 172 -178 360 -212 360
-10 0 -44 -24 -76 -53z"/>
<path d="M3534 4385 c-4 -8 1 -26 10 -39 15 -24 15 -25 -29 -46 -24 -12 -49
-19 -55 -15 -6 3 -60 -3 -121 -15 -103 -20 -120 -21 -237 -10 -70 7 -153 18
-185 26 -60 15 -151 12 -215 -8 -37 -11 -77 -59 -86 -104 -11 -49 -15 -560 -5
-575 8 -12 11 -12 19 1 11 16 13 30 11 75 -1 26 2 23 19 -20 11 -27 20 -66 20
-86 0 -20 7 -50 16 -67 14 -29 20 -32 60 -32 24 0 44 5 44 10 0 6 -12 28 -26
50 -33 50 -42 116 -20 158 23 45 35 48 62 16 19 -24 25 -26 33 -15 8 12 12 12
25 2 12 -10 17 -9 28 8 7 12 20 21 29 21 9 0 24 12 34 26 l17 27 147 -5 c179
-6 245 -24 248 -66 8 -108 16 -168 24 -177 5 -5 9 -19 9 -32 0 -21 4 -23 50
-23 55 0 60 8 31 48 -28 41 -33 68 -26 133 5 43 12 62 24 66 74 23 87 39 115
143 8 30 22 80 31 112 15 54 57 107 88 109 7 0 30 2 52 5 22 3 52 7 68 8 15 2
31 4 37 5 5 0 17 12 25 25 23 35 8 62 -82 153 -85 85 -160 126 -188 103 -10
-9 -21 -8 -44 4 -38 20 -50 20 -57 1z"/>
<path d="M2537 2958 c-20 -24 -54 -63 -76 -88 -23 -25 -41 -48 -41 -52 0 -3
19 -23 42 -43 l43 -36 13 41 c15 45 68 102 113 122 16 7 29 15 29 18 0 6 -76
80 -82 80 -3 0 -22 -19 -41 -42z"/>
<path d="M3762 2962 l-42 -38 52 -34 c58 -38 98 -90 98 -126 0 -13 3 -24 6
-24 9 0 94 72 94 79 0 3 -38 45 -83 93 l-82 87 -43 -37z"/>
<path d="M2658 2876 c-65 -24 -83 -41 -103 -100 -18 -53 -18 -58 -2 -108 18
-58 46 -89 235 -257 l104 -91 33 27 c112 93 234 199 234 205 1 7 -304 269
-355 305 -41 29 -99 37 -146 19z"/>
<path d="M3615 2859 c-22 -12 -56 -36 -75 -53 -20 -17 -58 -50 -85 -73 -28
-23 -134 -113 -236 -200 -103 -87 -208 -176 -234 -198 -27 -22 -128 -108 -225
-192 -171 -145 -220 -194 -220 -216 0 -12 49 -74 138 -174 59 -67 68 -73 103
-73 35 0 50 10 161 112 68 61 148 134 178 163 30 28 105 96 165 150 61 54 119
107 131 119 11 11 61 57 110 101 236 213 322 297 334 325 17 40 7 93 -27 149
-49 79 -137 103 -218 60z"/>
<path d="M3428 2173 c-46 -42 -105 -97 -132 -121 l-49 -45 79 -76 c248 -237
265 -251 304 -251 26 0 65 37 198 193 47 55 43 85 -15 135 -140 119 -289 242
-295 242 -4 0 -44 -35 -90 -77z"/>
</g>
</svg>
